<?xml version="1.0" encoding="UTF-8" standalone="no"?>
<!-- Created with Inkscape (http://www.inkscape.org/) -->

<svg
   width="8.5666656in"
   height="1.4696522in"
   viewBox="0 0 217.59331 37.329165"
   version="1.1"
   id="svg5"
   inkscape:version="1.4.2 (ebf0e940d0, 2025-05-08)"
   sodipodi:docname="flowchart.svg"
   xmlns:inkscape="http://www.inkscape.org/namespaces/inkscape"
   xmlns:sodipodi="http://sodipodi.sourceforge.net/DTD/sodipodi-0.dtd"
   xmlns="http://www.w3.org/2000/svg"
   xmlns:svg="http://www.w3.org/2000/svg"
   xmlns:ns5="http://www.iki.fi/pav/software/textext/">
  <sodipodi:namedview
     id="namedview7"
     pagecolor="#ffffff"
     bordercolor="#ffffff"
     borderopacity="1"
     inkscape:showpageshadow="false"
     inkscape:pageopacity="0"
     inkscape:pagecheckerboard="false"
     inkscape:deskcolor="#a1a1a1"
     inkscape:document-units="in"
     showgrid="true"
     inkscape:zoom="1.9221858"
     inkscape:cx="266.10331"
     inkscape:cy="113.15243"
     inkscape:window-width="1594"
     inkscape:window-height="848"
     inkscape:window-x="0"
     inkscape:window-y="49"
     inkscape:window-maximized="1"
     inkscape:current-layer="layer1"
     showborder="true"
     shape-rendering="auto">
    <inkscape:grid
       id="grid1"
       units="in"
       originx="-1.9187164e-06"
       originy="-40.140848"
       spacingx="0.26458333"
       spacingy="0.26458335"
       empcolor="#3f3fff"
       empopacity="0.25098039"
       color="#3f3fff"
       opacity="0.1254902"
       empspacing="5"
       enabled="true"
       visible="true" />
  </sodipodi:namedview>
  <defs
     id="defs2">
    <marker
       style="overflow:visible"
       id="Triangle"
       refX="0"
       refY="0"
       orient="auto-start-reverse"
       inkscape:stockid="Triangle arrow"
       markerWidth="1"
       markerHeight="1"
       viewBox="0 0 1 1"
       inkscape:isstock="true"
       inkscape:collect="always"
       preserveAspectRatio="xMidYMid">
      <path
         transform="scale(0.5)"
         style="fill:context-stroke;fill-rule:evenodd;stroke:context-stroke;stroke-width:1pt"
         d="M 5.77,0 -2.88,5 V -5 Z"
         id="path135" />
    </marker>
    <marker
       style="overflow:visible"
       id="Triangle-75"
       refX="0"
       refY="0"
       orient="auto-start-reverse"
       inkscape:stockid="Triangle arrow"
       markerWidth="1"
       markerHeight="1"
       viewBox="0 0 1 1"
       inkscape:isstock="true"
       inkscape:collect="always"
       preserveAspectRatio="xMidYMid">
      <path
         transform="scale(0.5)"
         style="fill:context-stroke;fill-rule:evenodd;stroke:context-stroke;stroke-width:1pt"
         d="M 5.77,0 -2.88,5 V -5 Z"
         id="path135-48" />
    </marker>
    <marker
       style="overflow:visible"
       id="Triangle-7"
       refX="0"
       refY="0"
       orient="auto-start-reverse"
       inkscape:stockid="Triangle arrow"
       markerWidth="1"
       markerHeight="1"
       viewBox="0 0 1 1"
       inkscape:isstock="true"
       inkscape:collect="always"
       preserveAspectRatio="xMidYMid">
      <path
         transform="scale(0.5)"
         style="fill:context-stroke;fill-rule:evenodd;stroke:context-stroke;stroke-width:1pt"
         d="M 5.77,0 -2.88,5 V -5 Z"
         id="path135-4" />
    </marker>
    <marker
       style="overflow:visible"
       id="Triangle-7-40"
       refX="0"
       refY="0"
       orient="auto-start-reverse"
       inkscape:stockid="Triangle arrow"
       markerWidth="1"
       markerHeight="1"
       viewBox="0 0 1 1"
       inkscape:isstock="true"
       inkscape:collect="always"
       preserveAspectRatio="xMidYMid">
      <path
         transform="scale(0.5)"
         style="fill:context-stroke;fill-rule:evenodd;stroke:context-stroke;stroke-width:1pt"
         d="M 5.77,0 -2.88,5 V -5 Z"
         id="path135-4-5" />
    </marker>
    <marker
       style="overflow:visible"
       id="Triangle-7-4-9"
       refX="0"
       refY="0"
       orient="auto-start-reverse"
       inkscape:stockid="Triangle arrow"
       markerWidth="1"
       markerHeight="1"
       viewBox="0 0 1 1"
       inkscape:isstock="true"
       inkscape:collect="always"
       preserveAspectRatio="xMidYMid">
      <path
         transform="scale(0.5)"
         style="fill:context-stroke;fill-rule:evenodd;stroke:context-stroke;stroke-width:1pt"
         d="M 5.77,0 -2.88,5 V -5 Z"
         id="path135-4-3-7" />
    </marker>
  </defs>
  <g
     inkscape:label="Layer 1"
     inkscape:groupmode="layer"
     id="layer1"
     transform="translate(178.329, -81.4159)">
    <rect
       style="font-variation-settings:normal;fill:none;fill-opacity:1;fill-rule:evenodd;stroke:#000000;stroke-width:1.27;stroke-linecap:butt;stroke-linejoin:miter;stroke-miterlimit:4;stroke-dasharray:none;stroke-dashoffset:0;stroke-opacity:1;paint-order:markers fill stroke;stop-color:#000000"
       id="rect10-1-9-9-2"
       width="60.082787"
       height="36.059166"
       x="-177.69417"
       y="82.05085" />
    <text
       xml:space="preserve"
       style="font-size:8.01313px;line-height:1;font-family:sans-serif;-inkscape-font-specification:sans-serif;text-decoration:none;text-decoration-line:none;text-decoration-color:#000000;fill:#000000;stroke:none;stroke-width:0.999998;stroke-linecap:butt;stroke-linejoin:miter;stroke-dasharray:4, 2;stroke-opacity:1;-inkscape-stroke:none;paint-order:markers fill stroke;stop-color:#000000"
       x="-147.6767"
       y="93.98243"
       id="text30"><tspan
         sodipodi:role="line"
         style="font-style:normal;font-variant:normal;font-weight:normal;font-stretch:normal;font-size:8.01313px;font-family:'CMU Serif';-inkscape-font-specification:'CMU Serif';text-align:center;text-anchor:middle;stroke:none;stroke-width:0.999998"
         x="-147.6767"
         y="93.98243"
         id="tspan31">Nature</tspan></text>
    <text
       xml:space="preserve"
       style="font-style:normal;font-variant:normal;font-weight:normal;font-stretch:normal;font-size:8.01313px;line-height:1;font-family:'CMU Serif';-inkscape-font-specification:'CMU Serif';text-decoration:none;text-decoration-line:none;text-decoration-color:#000000;fill:#000000;stroke:none;stroke-width:0.999998;stroke-linecap:butt;stroke-linejoin:miter;stroke-dasharray:4, 2;stroke-opacity:1;-inkscape-stroke:none;paint-order:markers fill stroke;stop-color:#000000"
       x="-167.97917"
       y="107.81577"
       id="text32"><tspan
         sodipodi:role="line"
         id="tspan32"
         style="font-style:italic;font-variant:normal;font-weight:normal;font-stretch:normal;font-size:8.01313px;font-family:'CMU Serif';-inkscape-font-specification:'CMU Serif';stroke:none;stroke-width:0.999998"
         x="-167.97917"
         y="107.81577">x</tspan></text>
    <text
       xml:space="preserve"
       style="font-style:normal;font-variant:normal;font-weight:normal;font-stretch:normal;font-size:8.01313px;line-height:1;font-family:'CMU Serif';-inkscape-font-specification:'CMU Serif';text-decoration:none;text-decoration-line:none;text-decoration-color:#000000;fill:#000000;stroke:none;stroke-width:0.999998;stroke-linecap:butt;stroke-linejoin:miter;stroke-dasharray:4, 2;stroke-opacity:1;-inkscape-stroke:none;paint-order:markers fill stroke;stop-color:#000000"
       x="-140.55957"
       y="108.12923"
       id="text32-7"><tspan
         sodipodi:role="line"
         id="tspan32-8"
         style="font-style:normal;font-variant:normal;font-weight:normal;font-stretch:normal;font-size:8.01313px;font-family:'CMU Serif';-inkscape-font-specification:'CMU Serif';stroke:none;stroke-width:0.999998"
         x="-140.55957"
         y="108.12923">F₀(·)</tspan></text>
    <path
       style="font-variation-settings:normal;fill:none;fill-opacity:1;fill-rule:evenodd;stroke:#000000;stroke-width:1.27;stroke-linecap:butt;stroke-linejoin:miter;stroke-miterlimit:4;stroke-dasharray:none;stroke-dashoffset:0;stroke-opacity:1;marker-end:url(#Triangle);paint-order:markers fill stroke;stop-color:#000000"
       d="m -159.6804,106.09029 h 12.01972"
       id="path32"
       sodipodi:nodetypes="cc" />
    <path
       style="font-variation-settings:normal;fill:none;fill-opacity:1;fill-rule:evenodd;stroke:#000000;stroke-width:1.27;stroke-linecap:butt;stroke-linejoin:miter;stroke-miterlimit:4;stroke-dasharray:none;stroke-dashoffset:0;stroke-opacity:1;marker-end:url(#Triangle-75);paint-order:markers fill stroke;stop-color:#000000"
       d="M 5.5908434,106.09029 H 17.610568"
       id="path32-2"
       sodipodi:nodetypes="cc" />
    <rect
       style="font-variation-settings:normal;fill:none;fill-opacity:1;fill-rule:evenodd;stroke:#000000;stroke-width:1.27;stroke-linecap:butt;stroke-linejoin:miter;stroke-miterlimit:4;stroke-dasharray:none;stroke-dashoffset:0;stroke-opacity:1;paint-order:markers fill stroke;stop-color:#000000"
       id="rect10-1-9-9-2-8"
       width="59.513416"
       height="36.059166"
       x="-105.59166"
       y="82.05085" />
    <text
       xml:space="preserve"
       style="font-size:8.01313px;line-height:1;font-family:sans-serif;-inkscape-font-specification:sans-serif;text-decoration:none;text-decoration-line:none;text-decoration-color:#000000;fill:#000000;stroke:none;stroke-width:0.999998;stroke-linecap:butt;stroke-linejoin:miter;stroke-dasharray:4, 2;stroke-opacity:1;-inkscape-stroke:none;paint-order:markers fill stroke;stop-color:#000000"
       x="-75.542358"
       y="94.070564"
       id="text30-5"><tspan
         sodipodi:role="line"
         style="font-style:normal;font-variant:normal;font-weight:normal;font-stretch:normal;font-size:8.01313px;font-family:'CMU Serif';-inkscape-font-specification:'CMU Serif';text-align:center;text-anchor:middle;stroke:none;stroke-width:0.999998"
         x="-75.542358"
         y="94.070564"
         id="tspan31-9">Instrument</tspan></text>
    <text
       xml:space="preserve"
       style="font-style:normal;font-variant:normal;font-weight:normal;font-stretch:normal;font-size:8.01313px;line-height:1;font-family:'CMU Serif';-inkscape-font-specification:'CMU Serif';text-decoration:none;text-decoration-line:none;text-decoration-color:#000000;fill:#000000;stroke:none;stroke-width:0.999998;stroke-linecap:butt;stroke-linejoin:miter;stroke-dasharray:4, 2;stroke-opacity:1;-inkscape-stroke:none;paint-order:markers fill stroke;stop-color:#000000"
       x="-61.190628"
       y="107.07477"
       id="text32-75"><tspan
         sodipodi:role="line"
         id="tspan32-3"
         style="font-style:italic;font-variant:normal;font-weight:normal;font-stretch:normal;font-size:8.01313px;font-family:'CMU Serif';-inkscape-font-specification:'CMU Serif';stroke:none;stroke-width:0.999998"
         x="-61.190628"
         y="107.07477">y</tspan></text>
    <text
       xml:space="preserve"
       style="font-style:normal;font-variant:normal;font-weight:normal;font-stretch:normal;font-size:8.01313px;line-height:1;font-family:'CMU Serif';-inkscape-font-specification:'CMU Serif';text-decoration:none;text-decoration-line:none;text-decoration-color:#000000;fill:#000000;stroke:none;stroke-width:0.999998;stroke-linecap:butt;stroke-linejoin:miter;stroke-dasharray:4, 2;stroke-opacity:1;-inkscape-stroke:none;paint-order:markers fill stroke;stop-color:#000000"
       x="-90.58474"
       y="108.20442"
       id="text32-7-8"><tspan
         sodipodi:role="line"
         id="tspan32-8-8"
         style="font-style:normal;font-variant:normal;font-weight:normal;font-stretch:normal;font-size:8.01313px;font-family:'CMU Serif';-inkscape-font-specification:'CMU Serif';stroke:none;stroke-width:0.999998"
         x="-90.58474"
         y="108.20442"><tspan
           style="font-style:normal;font-variant:normal;font-weight:200;font-stretch:normal;font-size:8.01313px;font-family:'CMU Typewriter Text';-inkscape-font-specification:'CMU Typewriter Text Ultra-Light';stroke-width:0.999998"
           id="tspan33">+</tspan><tspan
           style="font-style:italic;font-size:8.01313px;stroke-width:0.999998"
           id="tspan34">ε</tspan></tspan></text>
    <path
       style="font-variation-settings:normal;fill:none;fill-opacity:1;fill-rule:evenodd;stroke:#000000;stroke-width:1.27;stroke-linecap:butt;stroke-linejoin:miter;stroke-miterlimit:4;stroke-dasharray:none;stroke-dashoffset:0;stroke-opacity:1;marker-end:url(#Triangle-7);paint-order:markers fill stroke;stop-color:#000000"
       d="m -79.533135,106.0901 h 12.01972"
       id="path32-3" />
    <path
       style="font-variation-settings:normal;fill:none;fill-opacity:1;fill-rule:evenodd;stroke:#000000;stroke-width:1.26999;stroke-linecap:butt;stroke-linejoin:miter;stroke-miterlimit:4;stroke-dasharray:none;stroke-dashoffset:0;stroke-opacity:1;marker-end:url(#Triangle-7-40);paint-order:markers fill stroke;stop-color:#000000"
       d="m -120.7824,106.09011 h 23.21969"
       id="path32-3-4" />
    <rect
       style="font-variation-settings:normal;fill:none;fill-opacity:1;fill-rule:evenodd;stroke:#000000;stroke-width:1.27;stroke-linecap:butt;stroke-linejoin:miter;stroke-miterlimit:4;stroke-dasharray:none;stroke-dashoffset:0;stroke-opacity:1;paint-order:markers fill stroke;stop-color:#000000"
       id="rect10-1-9-9-2-8-3"
       width="72.102509"
       height="36.059166"
       x="-33.473351"
       y="82.05085" />
    <text
       xml:space="preserve"
       style="font-size:8.01313px;line-height:1;font-family:sans-serif;-inkscape-font-specification:sans-serif;text-decoration:none;text-decoration-line:none;text-decoration-color:#000000;fill:#000000;stroke:none;stroke-width:0.999998;stroke-linecap:butt;stroke-linejoin:miter;stroke-dasharray:4, 2;stroke-opacity:1;-inkscape-stroke:none;paint-order:markers fill stroke;stop-color:#000000"
       x="2.5858166"
       y="94.070564"
       id="text30-5-8"><tspan
         sodipodi:role="line"
         style="font-style:normal;font-variant:normal;font-weight:normal;font-stretch:normal;font-size:8.01313px;font-family:'CMU Serif';-inkscape-font-specification:'CMU Serif';text-align:center;text-anchor:middle;stroke:none;stroke-width:0.999998"
         x="2.5858164"
         y="94.070564"
         id="tspan31-9-6">Retrieval</tspan></text>
    <text
       xml:space="preserve"
       style="font-style:normal;font-variant:normal;font-weight:normal;font-stretch:normal;font-size:8.01313px;line-height:1;font-family:'CMU Serif';-inkscape-font-specification:'CMU Serif';text-decoration:none;text-decoration-line:none;text-decoration-color:#000000;fill:#000000;stroke:none;stroke-width:0.999998;stroke-linecap:butt;stroke-linejoin:miter;stroke-dasharray:4, 2;stroke-opacity:1;-inkscape-stroke:none;paint-order:markers fill stroke;stop-color:#000000"
       x="-22.006407"
       y="108.12923"
       id="text32-7-8-8"><tspan
         sodipodi:role="line"
         id="tspan32-8-8-8"
         style="font-style:normal;font-variant:normal;font-weight:normal;font-stretch:normal;font-size:8.01313px;font-family:'CMU Serif';-inkscape-font-specification:'CMU Serif';stroke:none;stroke-width:0.999998"
         x="-22.006407"
         y="108.12923">R(·, F)</tspan></text>
    <path
       style="font-variation-settings:normal;fill:none;fill-opacity:1;fill-rule:evenodd;stroke:#000000;stroke-width:1.27;stroke-linecap:butt;stroke-linejoin:miter;stroke-miterlimit:4;stroke-dasharray:none;stroke-dashoffset:0;stroke-opacity:1;marker-end:url(#Triangle-7-4-9);paint-order:markers fill stroke;stop-color:#000000"
       d="m -52.20413,106.09011 h 24.039478"
       id="path32-3-8-6"
       sodipodi:nodetypes="cc" />
    <g
       id="g6406"
       transform="matrix(0.705553,0,0,0.705553,-24.628551,52.817366)"
       ns5:version="1.12.0"
       ns5:texconverter="typst"
       ns5:pdfconverter="inkscape"
       ns5:text="$hat(x)$\n\n\n"
       ns5:preamble="default_preamble_typst.typ"
       ns5:scale="2.0"
       ns5:alignment="middle center"
       ns5:inkscapeversion="1.4.2"
       ns5:jacobian_sqrt="0.705553">
      <g
         id="g7207">
        <g
           class="typst-text"
           transform="matrix(1,0,0,-1,71.7351,78.3791)"
           id="g9045">
          <g
             id="g7780">
            <path
               d="m 0,0 m 4.246,5.665 0.1870003,0.1979999 -1.6830001,1.771 -1.683,-1.7709999 0.1869999,-0.198 1.496,1.1329999 z"
               id="path725" />
          </g>
        </g>
        <g
           class="typst-text"
           transform="matrix(1,0,0,-1,70.8661,78.3791)"
           id="g7471">
          <g
             id="g9952">
            <path
               d="M 0,0 M 5.797,4.103 C 5.797,4.609 5.3020001,4.8619998 4.7519999,4.8619998 4.2789998,4.8619998 3.905,4.609 3.619,4.103 3.388,4.609 3.0030001,4.8619998 2.442,4.8619998 1.9030001,4.8619998 1.463,4.609 1.111,4.1139997 0.81400007,3.6849998 0.66000002,3.3659998 0.66000002,3.1569999 c 0,-0.099 0.055,-0.1540001 0.16500002,-0.1540001 0.099,0 0.16500002,0.055 0.18699996,0.1540001 0.209,0.638 0.671,1.3859997 1.4080001,1.3859997 0.3629999,0 0.5389998,-0.231 0.5389998,-0.6819997 C 2.9589999,3.6299997 2.761,2.7719999 2.376,1.2979997 2.1889999,0.56099966 1.859,0.19799966 1.3860001,0.19799966 c -0.1540001,0 -0.2970001,0.033 -0.41800006,0.088 C 1.254,0.39599966 1.397,0.59399964 1.397,0.87999967 1.397,1.1659997 1.254,1.3089997 0.95700006,1.3089997 c -0.36300004,0 -0.638,-0.308 -0.638,-0.67100001 0,-0.50600004 0.51699996,-0.759 1.05600004,-0.759 0.462,0 0.8359999,0.253 1.1329999,0.759 0.2090001,-0.50600004 0.605,-0.759 1.177,-0.759 0.5279999,0 0.9679999,0.253 1.3200002,0.74799997 0.2969999,0.42900004 0.4509997,0.74800004 0.4509997,0.95700004 0,0.099 -0.055,0.154 -0.165,0.154 -0.099,0 -0.1539998,-0.055 -0.1869998,-0.154 C 4.9169999,0.95699966 4.422,0.19799966 3.707,0.19799966 c -0.3630001,0 -0.5499999,0.21999998 -0.5499999,0.671 0,0.14299994 0.055,0.45099994 0.1759999,0.94599994 l 0.374,1.485 c 0.2089999,0.825 0.55,1.2429998 1.0340002,1.2429998 0.1539998,0 0.297,-0.033 0.4179998,-0.088 -0.297,-0.099 -0.4400001,-0.2969999 -0.4400001,-0.5939998 0,-0.286 0.1540003,-0.4290002 0.4510002,-0.4290002 0.3519998,0 0.6269999,0.319 0.6269999,0.6710006 z"
               id="path1000" />
          </g>
        </g>
      </g>
      <defs
         id="defs9329">
        <symbol
           id="symbol1073"
           overflow="visible">
          <path
             d="m 0,0 m 4.246,5.665 0.1870003,0.1979999 -1.6830001,1.771 -1.683,-1.7709999 0.1869999,-0.198 1.496,1.1329999 z"
             id="path5737" />
        </symbol>
        <symbol
           id="symbol9273"
           overflow="visible">
          <path
             d="M 0,0 M 5.797,4.103 C 5.797,4.609 5.3020001,4.8619998 4.7519999,4.8619998 4.2789998,4.8619998 3.905,4.609 3.619,4.103 3.388,4.609 3.0030001,4.8619998 2.442,4.8619998 1.9030001,4.8619998 1.463,4.609 1.111,4.1139997 0.81400007,3.6849998 0.66000002,3.3659998 0.66000002,3.1569999 c 0,-0.099 0.055,-0.1540001 0.16500002,-0.1540001 0.099,0 0.16500002,0.055 0.18699996,0.1540001 0.209,0.638 0.671,1.3859997 1.4080001,1.3859997 0.3629999,0 0.5389998,-0.231 0.5389998,-0.6819997 C 2.9589999,3.6299997 2.761,2.7719999 2.376,1.2979997 2.1889999,0.56099966 1.859,0.19799966 1.3860001,0.19799966 c -0.1540001,0 -0.2970001,0.033 -0.41800006,0.088 C 1.254,0.39599966 1.397,0.59399964 1.397,0.87999967 1.397,1.1659997 1.254,1.3089997 0.95700006,1.3089997 c -0.36300004,0 -0.638,-0.308 -0.638,-0.67100001 0,-0.50600004 0.51699996,-0.759 1.05600004,-0.759 0.462,0 0.8359999,0.253 1.1329999,0.759 0.2090001,-0.50600004 0.605,-0.759 1.177,-0.759 0.5279999,0 0.9679999,0.253 1.3200002,0.74799997 0.2969999,0.42900004 0.4509997,0.74800004 0.4509997,0.95700004 0,0.099 -0.055,0.154 -0.165,0.154 -0.099,0 -0.1539998,-0.055 -0.1869998,-0.154 C 4.9169999,0.95699966 4.422,0.19799966 3.707,0.19799966 c -0.3630001,0 -0.5499999,0.21999998 -0.5499999,0.671 0,0.14299994 0.055,0.45099994 0.1759999,0.94599994 l 0.374,1.485 c 0.2089999,0.825 0.55,1.2429998 1.0340002,1.2429998 0.1539998,0 0.297,-0.033 0.4179998,-0.088 -0.297,-0.099 -0.4400001,-0.2969999 -0.4400001,-0.5939998 0,-0.286 0.1540003,-0.4290002 0.4510002,-0.4290002 0.3519998,0 0.6269999,0.319 0.6269999,0.6710006 z"
             id="path6448" />
        </symbol>
      </defs>
    </g>
  </g>
</svg>
